<svg xmlns="http://www.w3.org/2000/svg" version="1.1" xmlns:xlink="http://www.w3.org/1999/xlink" xmlns:svgjs="http://svgjs.com/svgjs" width="1920" height="1920" preserveAspectRatio="none" viewBox="0 0 1920 1920"><g mask="url(&quot;#SvgjsMask2006&quot;)" fill="none"><rect width="1920" height="1920" x="0" y="0" fill="url(#SvgjsLinearGradient2007)"></rect><path d="M0 103.78C134.65 6.16 239.89 120.04 480 132C719.89 143.94 748.56 199.26 960 151.58C1041.25 133.26 986.15 25.02 1065.37 0C1226.15 -50.77 1252.68 0 1440 0C1680 0 1800 -120 1920 0C2040 120 1920 240 1920 480C1920 720 1920 720 1920 960C1920 1200 1920 1200 1920 1440C1920 1680 2040 1800 1920 1920C1800 2040 1680 1920 1440 1920C1200 1920 1200 1920 960 1920C720 1920 720 1920 480 1920C270 1920 204.71 2001.4 60 1920C-35.29 1866.4 17.05 1786.42 0 1650C-12.95 1546.42 0 1545 0 1440C0 1200 0 1200 0 960C0 720 0 720 0 480C0 291.89 -105.35 180.16 0 103.78" stroke="rgba(255, 20, 147, 0.3137254901960784)" stroke-width="2"></path><path d="M480 944C470.31 944 466.09 950.01 466.09 960C466.09 1001.64 459.93 1047.27 480 1047.27C506.89 1047.27 560 990.57 560 960C560 938.93 517.27 944 480 944" stroke="rgba(127, 255, 0, 0.3137254901960784)" stroke-width="2"></path><path d="M1440 1293.91C1374.59 1293.91 1332.77 1365.61 1332.77 1440C1332.77 1519.95 1373.31 1602.58 1440 1602.58C1529.78 1602.58 1645.71 1518.65 1645.71 1440C1645.71 1364.32 1531.06 1293.91 1440 1293.91" stroke="rgba(255, 20, 147, 0.3137254901960784)" stroke-width="2"></path><path d="M0 265.95C166.01 197.47 241.58 258.12 480 282C721.58 306.2 768.07 436.08 960 362.11C1133.93 295.08 1053.57 119.3 1211.71 0C1293.57 -61.76 1325.86 0 1440 0C1657.68 0 1679.46 -35.62 1875.35 0C1919.46 8.02 1915.54 39.33 1920 87.27C1937.87 279.33 1920 283.63 1920 480C1920 588 1964.52 604.93 1920 696C1847.19 844.93 1816.53 844.1 1685.33 960C1576.53 1056.1 1541.95 1018.1 1440 1120C1301.84 1258.1 1205.11 1277.06 1205.11 1440C1205.11 1615.12 1293.92 1796.13 1440 1796.13C1636.67 1796.13 1674.9 1625.93 1890.61 1440C1914.9 1419.07 1912.23 1382.4 1920 1382.4C1926.92 1382.4 1920 1411.2 1920 1440C1920 1680 2040 1800 1920 1920C1800 2040 1680 1920 1440 1920C1226.66 1920 1225.19 1928.47 1013.33 1920C985.19 1918.87 985.07 1900.8 960 1900.8C946.41 1900.8 951.15 1919.39 936 1920C711.15 1928.99 708 1920 480 1920C353.34 1920 226.67 1983.33 226.67 1920C226.67 1814.44 350.44 1748.8 480 1582.22C537.1 1508.8 536.13 1507.58 600 1440C776.13 1253.62 768.04 1241.98 960 1074.29C1042.77 1001.98 1149.47 1035.18 1149.47 960C1149.47 853.89 1091.77 754.23 960 711.72C757.03 646.23 689.35 666.17 480 744C355.44 790.31 386.08 852 292.17 960C146.08 1128 83.26 1296 0 1296C-62.83 1296 0 1128 0 960C0 720 0 720 0 480C0 372.98 -73.99 296.47 0 265.95" stroke="rgba(255, 20, 147, 0.3137254901960784)" stroke-width="2"></path><path d="M0 428.11C216.59 406.45 241.96 413.89 480 432C583.01 439.84 682.11 452.28 682.11 480C682.11 508.28 558.3 477.34 480 544C276.38 717.34 299.13 752 118.26 960C59.13 1028 33.7 1096 0 1096C-25.43 1096 0 1028 0 960C0 720 0 720 0 480C0 454.06 -23.41 430.45 0 428.11" stroke="rgba(255, 103, 0, 0.3137254901960784)" stroke-width="2"></path><path d="M1337.14 480C1312.1 245.36 1314.11 205.03 1358.05 0C1365.54 -34.97 1399.03 0 1440 0C1518.14 0 1578.6 -58.93 1596.28 0C1650.6 181.07 1630.77 250.14 1584 480C1552.63 634.14 1503.31 768 1440 768C1379.88 768 1353.08 629.36 1337.14 480" stroke="rgba(255, 103, 0, 0.3137254901960784)" stroke-width="2"></path><path d="M787.5 1440C787.5 1347.44 881.97 1264.76 960 1264.76C1026.94 1264.76 1077.45 1349.39 1077.45 1440C1077.45 1547.41 1028.37 1660.8 960 1660.8C883.4 1660.8 787.5 1545.46 787.5 1440" stroke="rgba(255, 103, 0, 0.3137254901960784)" stroke-width="2"></path><path d="M393.33 1920C393.33 1883.89 428.24 1804.44 480 1804.44C549.57 1804.44 636 1887.96 636 1920C636 1945.74 558 1920 480 1920C436.66 1920 393.33 1941.67 393.33 1920" stroke="rgba(255, 20, 147, 0.3137254901960784)" stroke-width="2"></path><path d="M1656 1920C1656 1876.88 1833.06 1760 1920 1760C1965.06 1760 1969.81 1889.81 1920 1920C1837.81 1969.81 1656 1956.88 1656 1920" stroke="rgba(127, 255, 0, 0.3137254901960784)" stroke-width="2"></path></g><defs><mask id="SvgjsMask2006"><rect width="1920" height="1920" fill="#ffffff"></rect></mask><linearGradient x1="50%" y1="0%" x2="50%" y2="100%" gradientUnits="userSpaceOnUse" id="SvgjsLinearGradient2007"><stop stop-color="rgba(6, 40, 61, 1)" offset="0"></stop><stop stop-color="rgba(15, 113, 107, 1)" offset="1"></stop></linearGradient></defs></svg>